# xmcd
#
# Track frame offsets: 
#        150
#        15689
#        28927
#        41267
#        57337
#        66177
#        79296
#        93297
#        103799
#        117730
#        130957
#        148466
#        159499
#        172151
#        193414
#        204178
#        214386
#        227202
#        238341
#        250476
#        264405
#        278872
#        291934
#        310061
#        320335
#        332642
#
# Disc length: 4626 seconds
#
# Revision: 1
# Processed by: cddbd v1.5.2PL0 Copyright (c) Steve Scherf et al.
# Submitted via: ExactAudioCopy v1.3
#
DISCID=9d12101a
DTITLE=Various Artist - Louisiana Hayride_CD05
DYEAR=2017
DGENRE=Country
TTITLE0=Sonny Trammell - San Antonio Rose
TTITLE1=Betty Amos - I Want To Be Loved (& Talk about Louisiana Hayrid
TTITLE1=e and state fair)
TTITLE2=Johnny Cash - So Doggone Lonesome
TTITLE3=George Jones - You Gotta Be My Baby (& Theme and Frank Page)
TTITLE4=Jeanette Hicks - My Blue Heaven
TTITLE5=Johnny Cash - I Walk The Line
TTITLE6=Slim Whitman - Dear Mary
TTITLE7=Hoot and Curley and Jack Ford - Old Time Religion
TTITLE8=Jimmy Newman - Come Back To Me
TTITLE9=Benny Barnes - The Waltz Of The Angels
TTITLE10=Benny Barnes - The Next Voice You Hear
TTITLE11=George Jones - Why Baby Why
TTITLE12=Rose Maddox - Tall Men
TTITLE13=Werly Fairburn - It's Heaven (& Theme and talk about Ark-La-T
TTITLE13=ex show)
TTITLE14=Betty Amos - As Long As I'm Moving
TTITLE15=Hoot and Curley and Jack Ford - Mansion In The Sky
TTITLE16=Johnny Horton - One Woman Man
TTITLE17=Jeanette Hicks and Jack Ford - Beautiful Brown Eyes
TTITLE18=Buddy Attaway - Y'All Come
TTITLE19=Jeanette Hicks - Searching
TTITLE20=David Houston - Hasta Luego
TTITLE21=Martha Lynn - I'm Goin' Huntin' Tonight
TTITLE22=Jimmy Newman - Seasons Of My Heart (& Intro about 9th year)
TTITLE23=Jeanette Hicks - Bo Weevil
TTITLE24=Buzz Busby - Muleskinner Blues
TTITLE25=Benny Barnes - Poor Man's Riches
EXTD=
EXTT0=
EXTT1=
EXTT2=
EXTT3=
EXTT4=
EXTT5=
EXTT6=
EXTT7=
EXTT8=
EXTT9=
EXTT10=
EXTT11=
EXTT12=
EXTT13=
EXTT14=
EXTT15=
EXTT16=
EXTT17=
EXTT18=
EXTT19=
EXTT20=
EXTT21=
EXTT22=
EXTT23=
EXTT24=
EXTT25=
PLAYORDER=
